<svg width="50" height="50" viewBox="0 0 50 50" fill="none" xmlns="http://www.w3.org/2000/svg">
<path id="Vector" d="M22.5 35C22.5 36.3807 23.6193 37.5 25 37.5C26.3807 37.5 27.5 36.3807 27.5 35H22.5ZM15.5392 30.9805C16.8874 30.6828 17.7389 29.3485 17.4412 28.0002C17.1434 26.652 15.809 25.8005 14.4608 26.0982L15.5392 30.9805ZM35.5393 26.0982C34.191 25.8005 32.8565 26.652 32.5588 28.0002C32.261 29.3485 33.1125 30.6828 34.4607 30.9805L35.5393 26.0982ZM32.5 12.5C32.5 16.6421 29.1423 20 25 20V25C31.9035 25 37.5 19.4036 37.5 12.5H32.5ZM25 20C20.8577 20 17.5 16.6421 17.5 12.5H12.5C12.5 19.4036 18.0964 25 25 25V20ZM17.5 12.5C17.5 8.35788 20.8577 5 25 5V0C18.0964 0 12.5 5.59645 12.5 12.5H17.5ZM25 5C29.1423 5 32.5 8.35788 32.5 12.5H37.5C37.5 5.59645 31.9035 0 25 0V5ZM22.5 22.5V35H27.5V22.5H22.5ZM45 37.5C45 38.0672 44.7518 38.7957 43.9208 39.669C43.0778 40.555 41.7395 41.4665 39.8945 42.2865C36.211 43.9235 30.9473 45 25 45V50C31.4793 50 37.4652 48.8378 41.9252 46.8555C44.152 45.8658 46.1087 44.6227 47.5427 43.1157C48.989 41.5962 50 39.6942 50 37.5H45ZM25 45C19.0529 45 13.789 43.9235 10.1055 42.2865C8.26055 41.4665 6.9223 40.555 6.07915 39.669C5.24825 38.7957 5 38.0672 5 37.5H0C0 39.6942 1.01095 41.5962 2.45718 43.1157C3.89113 44.6227 5.84795 45.8658 8.07475 46.8555C12.5346 48.8378 18.5207 50 25 50V45ZM5 37.5C5 36.706 5.52013 35.5335 7.4089 34.2065C9.25323 32.911 12.0386 31.7538 15.5392 30.9805L14.4608 26.0982C10.5528 26.9615 7.0882 28.3212 4.53465 30.1152C2.02557 31.878 0 34.3675 0 37.5H5ZM34.4607 30.9805C37.9615 31.7538 40.7467 32.911 42.591 34.2065C44.48 35.5335 45 36.706 45 37.5H50C50 34.3675 47.9745 31.878 45.4653 30.1152C42.9118 28.3212 39.4473 26.9615 35.5393 26.0982L34.4607 30.9805Z" fill="url(#paint0_linear_150_893)"/>
<defs>
<linearGradient id="paint0_linear_150_893" x1="8.59052e-07" y1="-4" x2="102" y2="121" gradientUnits="userSpaceOnUse">
<stop stop-color="#34A181"/>
<stop offset="1" stop-color="#133B2F"/>
</linearGradient>
</defs>
</svg>
